{
    "asset" : {
        "generator" : "Khronos glTF Blender I/O v1.6.16",
        "version" : "2.0"
    },
    "scene" : 0,
    "scenes" : [
        {
            "name" : "Scene",
            "nodes" : [
                0
            ]
        }
    ],
    "nodes" : [
        {
            "mesh" : 0,
            "name" : "Television"
        }
    ],
    "meshes" : [
        {
            "name" : "Cube",
            "primitives" : [
                {
                    "attributes" : {
                        "POSITION" : 0,
                        "NORMAL" : 1,
                        "TEXCOORD_0" : 2
                    },
                    "indices" : 3
                }
            ]
        }
    ],
    "accessors" : [
        {
            "bufferView" : 0,
            "componentType" : 5126,
            "count" : 461,
            "max" : [
                0.5,
                1.21875,
                0.3125
            ],
            "min" : [
                -0.5,
                0,
                -0.375
            ],
            "type" : "VEC3"
        },
        {
            "bufferView" : 1,
            "componentType" : 5126,
            "count" : 461,
            "type" : "VEC3"
        },
        {
            "bufferView" : 2,
            "componentType" : 5126,
            "count" : 461,
            "type" : "VEC2"
        },
        {
            "bufferView" : 3,
            "componentType" : 5123,
            "count" : 774,
            "type" : "SCALAR"
        }
    ],
    "bufferViews" : [
        {
            "buffer" : 0,
            "byteLength" : 5532,
            "byteOffset" : 0
        },
        {
            "buffer" : 0,
            "byteLength" : 5532,
            "byteOffset" : 5532
        },
        {
            "buffer" : 0,
            "byteLength" : 3688,
            "byteOffset" : 11064
        },
        {
            "buffer" : 0,
            "byteLength" : 1548,
            "byteOffset" : 14752
        }
    ],
    "buffers" : [
        {
            "byteLength" : 16300,
            "uri" : "data:application/octet-stream;base64,"
        }
    ]
}
